<svg width="25" height="25" viewBox="0 0 25 25" version="1.1" xmlns="http://www.w3.org/2000/svg" xmlns:xlink="http://www.w3.org/1999/xlink">
<title>button (3)</title>
<desc>Created using Figma</desc>
<g id="Canvas" transform="translate(546 -99)">
<g id="button (3)">
<g id="Group">
<g id="Delete 1">
<g id="Group">
<g id="Vector">
<use xlink:href="#path0_fill" transform="translate(-546 99)" fill="#BDBDBD"/>
</g>
</g>
</g>
</g>
</g>
</g>
<defs>
<path id="path0_fill" d="M 12.5 0C 5.59674 0 0 5.59674 0 12.5C 0 19.4033 5.59674 25 12.5 25C 19.4033 25 25 19.4033 25 12.5C 25 5.59674 19.4033 0 12.5 0ZM 12.5 22.8261C 6.79728 22.8261 2.17391 18.2027 2.17391 12.5C 2.17391 6.79728 6.79728 2.17391 12.5 2.17391C 18.2027 2.17391 22.8261 6.79728 22.8261 12.5C 22.8261 18.2027 18.2027 22.8261 12.5 22.8261ZM 16.4701 8.91467L 16.0859 8.53043C 15.7674 8.2125 15.2505 8.2125 14.9321 8.53043L 12.5 10.9625L 10.0679 8.53043C 9.74946 8.2125 9.23315 8.2125 8.91522 8.53043L 8.53043 8.91467C 8.2125 9.23315 8.2125 9.74946 8.53043 10.0679L 10.9625 12.5L 8.53043 14.9321C 8.2125 15.2505 8.2125 15.7668 8.53043 16.0848L 8.91522 16.4701C 9.23315 16.7875 9.74946 16.7875 10.0679 16.4701L 12.5 14.0375L 14.9321 16.4701C 15.2505 16.7875 15.7674 16.7875 16.0859 16.4701L 16.4701 16.0848C 16.7875 15.7668 16.7875 15.2505 16.4701 14.9321L 14.0375 12.5L 16.4701 10.0679C 16.7875 9.74946 16.7875 9.23315 16.4701 8.91467Z"/>
</defs>
</svg>
