<svg width="509" height="156" viewBox="0 0 509 156" version="1.1" xmlns="http://www.w3.org/2000/svg" xmlns:xlink="http://www.w3.org/1999/xlink">
<title>logo</title>
<desc>Created using Figma</desc>
<g id="Canvas" transform="translate(99 -837)">
<g id="logo">
<g id="UY">
<use xlink:href="#path0_fill" transform="translate(208 834)" fill="#FFFFFF"/>
</g>
<g id="NE">
<use xlink:href="#path1_fill" transform="translate(-110 834)" fill="#FFFFFF"/>
</g>
<g id="B new icon">
<g id="Vector">
<use xlink:href="#path2_fill" transform="translate(131.983 847)"/>
<mask id="mask0_outline_out">
<rect id="mask0_outline_inv" fill="white" x="-2" y="-2" width="81" height="135" transform="translate(131.983 847)"/>
<use xlink:href="#path2_fill" fill="black" transform="translate(131.983 847)"/>
</mask>
<g mask="url(#mask0_outline_out)">
<use xlink:href="#path3_stroke_2x" transform="translate(131.983 847)"/>
</g>
</g>
<g id="interface">
<g id="Group">
<g id="Group">
<g id="Vector">
<use xlink:href="#path4_fill" transform="matrix(1 3.45959e-24 -8.25415e-24 1 104 954.915)"/>
</g>
<g id="Vector">
<use xlink:href="#path5_fill" transform="matrix(1 5.91983e-24 -5.07863e-24 1 112.894 963.622)"/>
</g>
</g>
</g>
</g>
<g id="map">
<g id="Group">
<g id="Vector">
<use xlink:href="#path6_fill" transform="translate(104.665 837)"/>
</g>
</g>
</g>
</g>
</g>
</g>
<defs>
<path id="path0_fill" d="M 11.5039 107.716L 11.5039 15.3135L 26.3477 8.81934L 26.3477 107.994C 26.4095 115.416 29.069 121.725 34.3262 126.92C 39.6452 132.177 45.9847 134.806 53.3447 134.806C 60.7666 134.806 67.137 132.177 72.4561 126.92C 77.7132 121.725 80.3418 115.509 80.3418 108.272C 80.3418 108.149 80.3418 108.056 80.3418 107.994L 80.3418 15.3135L 95.1855 8.81934L 95.1855 107.716C 95.1855 119.096 91.1035 128.837 82.9395 136.939C 74.7754 144.98 64.9105 149 53.3447 149C 41.779 149 31.9141 144.98 23.75 136.939C 15.5859 128.837 11.5039 119.096 11.5039 107.716ZM 152.612 149L 152.612 106.51C 144.201 105.087 136.81 101.253 130.439 95.0059C 122.275 86.9036 118.193 77.1624 118.193 65.7822L 118.193 15.3135L 133.037 8.81934L 133.037 66.0605C 133.099 73.4824 135.758 79.791 141.016 84.9863C 146.335 90.2435 152.674 92.8721 160.034 92.8721C 167.456 92.8721 173.826 90.2435 179.146 84.9863C 184.403 79.791 187.031 73.5752 187.031 66.3389L 187.031 66.0605L 187.031 15.3135L 201.875 8.81934L 201.875 65.7822C 201.875 77.1624 197.793 86.9036 189.629 95.0059C 183.258 101.253 175.868 105.087 167.456 106.51L 167.456 142.506L 152.612 149Z"/>
<path id="path1_fill" d="M 11.5039 147L 11.5039 48.1035C 11.5039 36.7233 15.5859 27.013 23.75 18.9727C 31.9141 10.8704 41.779 6.81934 53.3447 6.81934C 64.9105 6.81934 74.7754 10.8704 82.9395 18.9727C 91.1035 27.013 95.1855 36.7233 95.1855 48.1035L 95.1855 140.506L 80.3418 147L 80.3418 47.8252C 80.2799 40.4033 77.6204 34.0947 72.3633 28.8994C 67.0443 23.6423 60.7048 21.0137 53.3447 21.0137C 45.9229 21.0137 39.5524 23.6423 34.2334 28.8994C 28.9762 34.0947 26.3477 40.3105 26.3477 47.5469C 26.3477 47.6706 26.3477 47.7633 26.3477 47.8252L 26.3477 140.506L 11.5039 147ZM 140.459 84.3779L 140.459 130.301L 206.514 130.301L 200.02 145.145L 125.615 145.145L 125.615 15.0762L 140.459 8.58203L 194.453 8.6748L 187.959 23.5186L 140.459 23.5186L 140.459 69.5342L 194.453 69.5342L 187.959 84.3779L 140.459 84.3779Z"/>
<path id="path2_fill" d="M 71.6886 74.224C 68.1198 68.6192 62.9721 64.9658 56.2128 63.2186C 61.0808 60.9721 64.9292 57.3188 67.7744 52.2132C 70.6196 47.1076 72.0339 40.8447 72.0339 33.3792C 72.0339 22.6915 69.1723 14.4545 63.4491 8.66815C 57.7258 2.88181 49.733 0 39.4542 0L 0.115135 0L 0.115135 8.21432L 39.1911 8.21432C 47.4799 8.21432 53.861 10.4154 58.3179 14.8403C 62.7748 19.2651 65.0115 25.6868 65.0115 34.1507C 65.0115 42.7281 62.7748 49.2179 58.3179 53.6428C 53.861 58.0676 47.4799 60.2687 39.1911 60.2687L 6.89092 60.2687L 6.89092 51.2828L 0 51.2828L 0 77.8319L 6.89092 77.8319L 6.89092 68.4376L 42.1514 68.4376C 51.3447 68.4376 58.3015 70.616 63.0379 74.9728C 67.7744 79.3296 70.1426 86.0916 70.1426 95.3044C 70.1426 104.517 67.7744 111.325 63.0379 115.727C 58.3015 120.152 51.3447 122.353 42.1514 122.353L 0.115135 122.353L 0.115135 130.567L 42.1514 130.567C 53.6801 130.567 62.3801 127.572 68.2349 121.604C 74.0897 115.636 77.0171 107.127 77.0171 96.0532C 77.0336 87.0901 75.2409 79.8061 71.6886 74.224Z"/>
<path id="path3_stroke_2x" d="M 71.6886 74.224L 73.1228 73.3113L 73.1226 73.3109L 71.6886 74.224ZM 56.2128 63.2186L 55.5005 61.675L 51.1734 63.6718L 55.7873 64.8645L 56.2128 63.2186ZM 0.115135 0L 0.115135 -1.7L -1.58487 -1.7L -1.58487 0L 0.115135 0ZM 0.115135 8.21432L -1.58487 8.21432L -1.58487 9.91432L 0.115135 9.91432L 0.115135 8.21432ZM 6.89092 60.2687L 5.19092 60.2687L 5.19092 61.9687L 6.89092 61.9687L 6.89092 60.2687ZM 6.89092 51.2828L 8.59092 51.2828L 8.59092 49.5828L 6.89092 49.5828L 6.89092 51.2828ZM 0 51.2828L 0 49.5828L -1.7 49.5828L -1.7 51.2828L 0 51.2828ZM 0 77.8319L -1.7 77.8319L -1.7 79.5319L 0 79.5319L 0 77.8319ZM 6.89092 77.8319L 6.89092 79.5319L 8.59092 79.5319L 8.59092 77.8319L 6.89092 77.8319ZM 6.89092 68.4376L 6.89092 66.7376L 5.19092 66.7376L 5.19092 68.4376L 6.89092 68.4376ZM 63.0379 115.727L 61.8806 114.482L 61.8774 114.485L 63.0379 115.727ZM 0.115135 122.353L 0.115135 120.653L -1.58487 120.653L -1.58487 122.353L 0.115135 122.353ZM 0.115135 130.567L -1.58487 130.567L -1.58487 132.267L 0.115135 132.267L 0.115135 130.567ZM 77.0171 96.0532L 75.3171 96.0501L 75.3171 96.0532L 77.0171 96.0532ZM 73.1226 73.3109C 69.3516 67.4476 63.6887 63.4242 56.6382 61.5727L 55.7873 64.8645C 62.2556 66.5074 66.8879 69.7907 70.2546 75.137L 73.1226 73.3109ZM 56.9251 64.7621C 62.0349 62.3791 66.2723 58.3609 69.2594 53.0407L 66.2894 51.3857C 63.5861 56.2766 60.1267 59.5651 55.5005 61.675L 56.9251 64.7621ZM 69.2594 53.0407C 72.2074 47.7148 73.7235 41.0331 73.7339 33.3792L 70.3339 33.3792C 70.3444 40.6563 69.0317 46.5004 66.2894 51.3857L 69.2594 53.0407ZM 73.7339 33.3792C 73.7339 22.3893 70.785 13.6675 64.6577 7.47268L 62.2404 9.86362C 67.5596 15.2414 70.3339 22.9938 70.3339 33.3792L 73.7339 33.3792ZM 64.6577 7.47268C 58.5356 1.28308 50.0599 -1.7 39.4542 -1.7L 39.4542 1.7C 49.4061 1.7 56.916 4.48055 62.2404 9.86362L 64.6577 7.47268ZM 39.4542 -1.7L 0.115135 -1.7L 0.115135 1.7L 39.4542 1.7L 39.4542 -1.7ZM -1.58487 0L -1.58487 8.21432L 1.81513 8.21432L 1.81513 0L -1.58487 0ZM 0.115135 9.91432L 39.1911 9.91432L 39.1911 6.51432L 0.115135 6.51432L 0.115135 9.91432ZM 39.1911 9.91432C 47.1826 9.91432 53.0751 12.0307 57.1202 16.0467L 59.5156 13.6339C 54.6469 8.80014 47.7773 6.51432 39.1911 6.51432L 39.1911 9.91432ZM 57.1202 16.0467C 61.158 20.0554 63.3115 25.9807 63.3115 34.1507L 66.7115 34.1507C 66.7115 25.393 64.3916 18.4748 59.5156 13.6339L 57.1202 16.0467ZM 63.3115 34.1507C 63.3115 42.4427 61.1535 48.432 57.1202 52.4364L 59.5156 54.8492C 64.396 50.0039 66.7115 43.0136 66.7115 34.1507L 63.3115 34.1507ZM 57.1202 52.4364C 53.0751 56.4523 47.1826 58.5687 39.1911 58.5687L 39.1911 61.9687C 47.7773 61.9687 54.6469 59.6829 59.5156 54.8492L 57.1202 52.4364ZM 39.1911 58.5687L 6.89092 58.5687L 6.89092 61.9687L 39.1911 61.9687L 39.1911 58.5687ZM 8.59092 60.2687L 8.59092 51.2828L 5.19092 51.2828L 5.19092 60.2687L 8.59092 60.2687ZM 6.89092 49.5828L 0 49.5828L 0 52.9828L 6.89092 52.9828L 6.89092 49.5828ZM -1.7 51.2828L -1.7 77.8319L 1.7 77.8319L 1.7 51.2828L -1.7 51.2828ZM 0 79.5319L 6.89092 79.5319L 6.89092 76.1319L 0 76.1319L 0 79.5319ZM 8.59092 77.8319L 8.59092 68.4376L 5.19092 68.4376L 5.19092 77.8319L 8.59092 77.8319ZM 6.89092 70.1376L 42.1514 70.1376L 42.1514 66.7376L 6.89092 66.7376L 6.89092 70.1376ZM 42.1514 70.1376C 51.0997 70.1376 57.5762 72.2587 61.887 76.224L 64.1888 73.7216C 59.0267 68.9733 51.5898 66.7376 42.1514 66.7376L 42.1514 70.1376ZM 61.887 76.224C 66.1454 80.141 68.4426 86.3594 68.4426 95.3044L 71.8426 95.3044C 71.8426 85.8239 69.4034 78.5182 64.1888 73.7216L 61.887 76.224ZM 68.4426 95.3044C 68.4426 104.249 66.1452 110.518 61.8806 114.482L 64.1953 116.972C 69.4036 112.131 71.8426 104.785 71.8426 95.3044L 68.4426 95.3044ZM 61.8774 114.485C 57.5674 118.511 51.0957 120.653 42.1514 120.653L 42.1514 124.053C 51.5938 124.053 59.0355 121.792 64.1984 116.969L 61.8774 114.485ZM 42.1514 120.653L 0.115135 120.653L 0.115135 124.053L 42.1514 124.053L 42.1514 120.653ZM -1.58487 122.353L -1.58487 130.567L 1.81513 130.567L 1.81513 122.353L -1.58487 122.353ZM 0.115135 132.267L 42.1514 132.267L 42.1514 128.867L 0.115135 128.867L 0.115135 132.267ZM 42.1514 132.267C 53.9607 132.267 63.1688 129.195 69.4484 122.794L 67.0214 120.413C 61.5914 125.948 53.3994 128.867 42.1514 128.867L 42.1514 132.267ZM 69.4484 122.794C 75.7056 116.416 78.7171 107.423 78.7171 96.0532L 75.3171 96.0532C 75.3171 106.83 72.4738 114.856 67.0214 120.413L 69.4484 122.794ZM 78.7171 96.0564C 78.734 86.8766 76.8993 79.2456 73.1228 73.3113L 70.2544 75.1367C 73.5825 80.3665 75.3332 87.3035 75.3171 96.0501L 78.7171 96.0564Z"/>
<path id="path4_fill" d="M 15 0C 6.72772 0 1.05863e-08 7.06284 1.05863e-08 15.7445C 1.05863e-08 26.9014 13.4975 37.2501 14.0723 37.6854C 14.349 37.8943 14.6741 38 15 38C 15.3084 38 15.6145 37.9059 15.8825 37.7179C 16.4597 37.3125 30 27.6454 30 15.7445C 30 7.06367 23.2707 0 15 0ZM 15.0301 34.2597C 12.1234 31.8319 3.17158 23.7037 3.17158 15.7453C 3.17158 8.89888 8.47764 3.33 15 3.33C 21.5232 3.33 26.8284 8.89971 26.8284 15.7453C 26.8284 24.2489 17.944 31.9584 15.0301 34.2597Z"/>
<path id="path5_fill" d="M 6.26784 3.68294e-07C 2.81161 3.68294e-07 2.05677e-07 2.95131 2.05677e-07 6.57927C 2.05677e-07 10.2064 2.81161 13.1585 6.26784 13.1585C 9.72328 13.1585 12.5357 10.2064 12.5357 6.57927C 12.5357 2.95131 9.72328 3.68294e-07 6.26784 3.68294e-07ZM 6.26784 11.494C 3.68617 11.494 1.58579 9.28922 1.58579 6.57927C 1.58579 3.86933 3.68617 1.66459 6.26784 1.66459C 8.84951 1.66459 10.9499 3.86933 10.9499 6.57927C 10.9499 9.28922 8.84951 11.494 6.26784 11.494Z"/>
<path id="path6_fill" d="M 30 14.6818C 30 6.54924 23.3088 -2.74543e-07 15 -2.74543e-07C 6.69118 -2.74543e-07 2.80492e-07 6.54924 2.80492e-07 14.6818C 2.80492e-07 22.8144 15 38 15 38C 15 38 30 22.8144 30 14.6818ZM 8.01471 14.3939C 8.01471 10.6515 11.1765 7.55682 15 7.55682C 18.8235 7.55682 21.9853 10.5795 21.9853 14.3939C 21.9853 18.1364 18.8971 21.2311 15 21.2311C 11.1765 21.2311 8.01471 18.1364 8.01471 14.3939Z"/>
</defs>
</svg>
