<?xml version="1.0" encoding="utf-8"?>
<!-- Generator: Adobe Illustrator 19.0.0, SVG Export Plug-In . SVG Version: 6.00 Build 0)  -->
<svg version="1.1" id="Layer_1" xmlns="http://www.w3.org/2000/svg" xmlns:xlink="http://www.w3.org/1999/xlink" x="0px" y="0px"
	 viewBox="5 173 509 156" style="enable-background:new 5 173 509 156;" xml:space="preserve">
<style type="text/css">
	.st0{fill:#FF957F;}
	.st1{fill:#FFFFFF;}
	.st2{fill:#FFFFFF;filter:url(#Adobe_OpacityMaskFilter);}
	.st3{mask:url(#mask0_outline_out);}
</style>
<title>logo</title>
<desc>Created using Figma</desc>
<g id="Canvas" transform="translate(99 -837)">
	<g id="logo">
		<g id="UY">
			<g transform="translate(208 834)">
				<path id="path0_fill" class="st0" d="M224.5,1114.7v-92.4l14.8-6.5v99.2c0.1,7.4,2.7,13.7,8,18.9c5.3,5.3,11.7,7.9,19,7.9
					c7.4,0,13.8-2.6,19.1-7.9c5.3-5.2,7.9-11.4,7.9-18.6c0-0.1,0-0.2,0-0.3v-92.7l14.8-6.5v98.9c0,11.4-4.1,21.1-12.2,29.2
					c-8.2,8-18,12.1-29.6,12.1c-11.6,0-21.4-4-29.6-12.1C228.6,1135.8,224.5,1126.1,224.5,1114.7z M365.6,1156v-42.5
					c-8.4-1.4-15.8-5.3-22.2-11.5c-8.2-8.1-12.2-17.8-12.2-29.2v-50.5l14.8-6.5v57.2c0.1,7.4,2.7,13.7,8,18.9
					c5.3,5.3,11.7,7.9,19,7.9c7.4,0,13.8-2.6,19.1-7.9c5.3-5.2,7.9-11.4,7.9-18.6v-0.3v-50.7l14.8-6.5v57c0,11.4-4.1,21.1-12.2,29.2
					c-6.4,6.2-13.8,10.1-22.2,11.5v36L365.6,1156z"/>
			</g>
		</g>
		<g id="NE">
			<g transform="translate(-110 834)">
				<path id="path1_fill" class="st0" d="M-93.5,1154v-98.9c0-11.4,4.1-21.1,12.2-29.1c8.2-8.1,18-12.2,29.6-12.2
					c11.6,0,21.4,4.1,29.6,12.2c8.2,8,12.2,17.8,12.2,29.1v92.4l-14.8,6.5v-99.2c-0.1-7.4-2.7-13.7-8-18.9c-5.3-5.3-11.7-7.9-19-7.9
					c-7.4,0-13.8,2.6-19.1,7.9c-5.3,5.2-7.9,11.4-7.9,18.6c0,0.1,0,0.2,0,0.3v92.7L-93.5,1154z M35.5,1091.4v45.9h66.1l-6.5,14.8
					H20.6v-130.1l14.8-6.5l54,0.1l-6.5,14.8H35.5v46h54l-6.5,14.8H35.5z"/>
			</g>
		</g>
		<g id="B_new_icon">
			<g id="Vector">
				<g transform="translate(131.983 847)">
					<path id="path2_fill" class="st1" d="M208.7,1094.2c-3.6-5.6-8.7-9.3-15.5-11c4.9-2.2,8.7-5.9,11.6-11
						c2.8-5.1,4.3-11.4,4.3-18.8c0-10.7-2.9-18.9-8.6-24.7c-5.7-5.8-13.7-8.7-24-8.7h-39.3v8.2h39.1c8.3,0,14.7,2.2,19.1,6.6
						c4.5,4.4,6.7,10.8,6.7,19.3c0,8.6-2.2,15.1-6.7,19.5c-4.5,4.4-10.8,6.6-19.1,6.6h-32.3v-9H137v26.5h6.9v-9.4h35.3
						c9.2,0,16.2,2.2,20.9,6.5c4.7,4.4,7.1,11.1,7.1,20.3c0,9.2-2.4,16-7.1,20.4c-4.7,4.4-11.7,6.6-20.9,6.6h-42v8.2h42
						c11.5,0,20.2-3,26.1-9s8.8-14.5,8.8-25.6C214,1107.1,212.2,1099.8,208.7,1094.2z"/>
				</g>
				<defs>
					<filter id="Adobe_OpacityMaskFilter" filterUnits="userSpaceOnUse" x="135.3" y="1018.3" width="80.4" height="134">
						<feColorMatrix  type="matrix" values="1 0 0 0 0  0 1 0 0 0  0 0 1 0 0  0 0 0 1 0"/>
					</filter>
				</defs>
				<mask maskUnits="userSpaceOnUse" x="135.3" y="1018.3" width="80.4" height="134" id="mask0_outline_out">
					<rect id="mask0_outline_inv" x="135" y="1018" class="st2" width="81" height="135"/>
					<g transform="translate(131.983 847)">
						<path id="path2_fill_1_" d="M208.7,1094.2c-3.6-5.6-8.7-9.3-15.5-11c4.9-2.2,8.7-5.9,11.6-11c2.8-5.1,4.3-11.4,4.3-18.8
							c0-10.7-2.9-18.9-8.6-24.7c-5.7-5.8-13.7-8.7-24-8.7h-39.3v8.2h39.1c8.3,0,14.7,2.2,19.1,6.6c4.5,4.4,6.7,10.8,6.7,19.3
							c0,8.6-2.2,15.1-6.7,19.5c-4.5,4.4-10.8,6.6-19.1,6.6h-32.3v-9H137v26.5h6.9v-9.4h35.3c9.2,0,16.2,2.2,20.9,6.5
							c4.7,4.4,7.1,11.1,7.1,20.3c0,9.2-2.4,16-7.1,20.4c-4.7,4.4-11.7,6.6-20.9,6.6h-42v8.2h42c11.5,0,20.2-3,26.1-9
							s8.8-14.5,8.8-25.6C214,1107.1,212.2,1099.8,208.7,1094.2z"/>
					</g>
				</mask>
				<g class="st3">
					<g transform="translate(131.983 847)">
						<path id="path3_stroke_2x" class="st1" d="M208.7,1094.2l1.4-0.9l0,0L208.7,1094.2z M193.2,1083.2l-0.7-1.5l-4.3,2l4.6,1.2
							L193.2,1083.2z M137.1,1020v-1.7h-1.7v1.7H137.1z M137.1,1028.2h-1.7v1.7h1.7V1028.2z M143.9,1080.3h-1.7v1.7h1.7V1080.3z
							 M143.9,1071.3h1.7v-1.7h-1.7V1071.3z M137,1071.3v-1.7h-1.7v1.7H137z M137,1097.8h-1.7v1.7h1.7V1097.8z M143.9,1097.8v1.7
							h1.7v-1.7H143.9z M143.9,1088.4v-1.7h-1.7v1.7H143.9z M200,1135.7l-1.2-1.2l0,0L200,1135.7z M137.1,1142.4v-1.7h-1.7v1.7
							H137.1z M137.1,1150.6h-1.7v1.7h1.7V1150.6z M214,1116.1l-1.7,0v0H214z M210.1,1093.3c-3.8-5.9-9.4-9.9-16.5-11.7l-0.9,3.3
							c6.5,1.6,11.1,4.9,14.5,10.3L210.1,1093.3z M193.9,1084.8c5.1-2.4,9.3-6.4,12.3-11.7l-3-1.7c-2.7,4.9-6.2,8.2-10.8,10.3
							L193.9,1084.8z M206.2,1073c2.9-5.3,4.5-12,4.5-19.7h-3.4c0,7.3-1.3,13.1-4,18L206.2,1073z M210.7,1053.4
							c0-11-2.9-19.7-9.1-25.9l-2.4,2.4c5.3,5.4,8.1,13.1,8.1,23.5H210.7z M201.6,1027.5c-6.1-6.2-14.6-9.2-25.2-9.2v3.4
							c10,0,17.5,2.8,22.8,8.2L201.6,1027.5z M176.4,1018.3h-39.3v3.4h39.3V1018.3z M135.4,1020v8.2h3.4v-8.2H135.4z M137.1,1029.9
							h39.1v-3.4h-39.1V1029.9z M176.2,1029.9c8,0,13.9,2.1,17.9,6.1l2.4-2.4c-4.9-4.8-11.7-7.1-20.3-7.1V1029.9z M194.1,1036
							c4,4,6.2,9.9,6.2,18.1h3.4c0-8.8-2.3-15.7-7.2-20.5L194.1,1036z M200.3,1054.2c0,8.3-2.2,14.3-6.2,18.3l2.4,2.4
							c4.9-4.8,7.2-11.8,7.2-20.7H200.3z M194.1,1072.4c-4,4-9.9,6.1-17.9,6.1v3.4c8.6,0,15.5-2.3,20.3-7.1L194.1,1072.4z
							 M176.2,1078.6h-32.3v3.4h32.3V1078.6z M145.6,1080.3v-9h-3.4v9H145.6z M143.9,1069.6H137v3.4h6.9V1069.6z M135.3,1071.3v26.5
							h3.4v-26.5H135.3z M137,1099.5h6.9v-3.4H137V1099.5z M145.6,1097.8v-9.4h-3.4v9.4H145.6z M143.9,1090.1h35.3v-3.4h-35.3
							V1090.1z M179.1,1090.1c8.9,0,15.4,2.1,19.7,6.1l2.3-2.5c-5.2-4.7-12.6-7-22-7V1090.1z M198.9,1096.2
							c4.3,3.9,6.6,10.1,6.6,19.1h3.4c0-9.5-2.4-16.8-7.7-21.6L198.9,1096.2z M205.4,1115.3c0,8.9-2.3,15.2-6.6,19.2l2.3,2.5
							c5.2-4.8,7.6-12.2,7.6-21.7H205.4z M198.9,1134.5c-4.3,4-10.8,6.2-19.7,6.2v3.4c9.4,0,16.9-2.3,22-7.1L198.9,1134.5z
							 M179.1,1140.7h-42v3.4h42V1140.7z M135.4,1142.4v8.2h3.4v-8.2H135.4z M137.1,1152.3h42v-3.4h-42V1152.3z M179.1,1152.3
							c11.8,0,21-3.1,27.3-9.5l-2.4-2.4c-5.4,5.5-13.6,8.5-24.9,8.5V1152.3z M206.4,1142.8c6.3-6.4,9.3-15.4,9.3-26.7h-3.4
							c0,10.8-2.8,18.8-8.3,24.4L206.4,1142.8z M215.7,1116.1c0-9.2-1.8-16.8-5.6-22.7l-2.9,1.8c3.3,5.2,5.1,12.2,5.1,20.9
							L215.7,1116.1z"/>
					</g>
				</g>
			</g>
			<g id="interface">
				<g id="Group_1_">
					<g id="Group">
						<g id="Vector_1_">
							<g transform="matrix(1 3.45959e-24 -8.25415e-24 1 104 954.915)">
								<path id="path4_fill" class="st1" d="M124,1127.9c-8.3,0-15,7.1-15,15.7c0,11.2,13.5,21.5,14.1,21.9
									c0.3,0.2,0.6,0.3,0.9,0.3c0.3,0,0.6-0.1,0.9-0.3c0.6-0.4,14.1-10.1,14.1-22C139,1135,132.3,1127.9,124,1127.9z M124,1162.2
									c-2.9-2.4-11.9-10.6-11.9-18.5c0-6.8,5.3-12.4,11.8-12.4c6.5,0,11.8,5.6,11.8,12.4C135.8,1152.2,126.9,1159.9,124,1162.2z"
									/>
							</g>
						</g>
						<g id="Vector_2_">
							<g transform="matrix(1 5.91983e-24 -5.07863e-24 1 112.894 963.622)">
								<path id="path5_fill" class="st1" d="M124.2,1136.6c-3.5,0-6.3,3-6.3,6.6c0,3.6,2.8,6.6,6.3,6.6c3.5,0,6.3-3,6.3-6.6
									C130.4,1139.6,127.6,1136.6,124.2,1136.6z M124.2,1148.1c-2.6,0-4.7-2.2-4.7-4.9s2.1-4.9,4.7-4.9c2.6,0,4.7,2.2,4.7,4.9
									S126.7,1148.1,124.2,1148.1z"/>
							</g>
						</g>
					</g>
				</g>
			</g>
			<g id="map">
				<g id="Group_2_">
					<g id="Vector_3_">
						<g transform="translate(104.665 837)">
							<path id="path6_fill" class="st1" d="M139.7,1024.7c0-8.1-6.7-14.7-15-14.7c-8.3,0-15,6.5-15,14.7c0,8.1,15,23.3,15,23.3
								S139.7,1032.8,139.7,1024.7z M117.7,1024.4c0-3.7,3.2-6.8,7-6.8c3.8,0,7,3,7,6.8c0,3.7-3.1,6.8-7,6.8
								C120.8,1031.2,117.7,1028.1,117.7,1024.4z"/>
						</g>
					</g>
				</g>
			</g>
		</g>
	</g>
</g>
</svg>
