<svg width="40" height="40" viewBox="0 0 40 40" version="1.1" xmlns="http://www.w3.org/2000/svg" xmlns:xlink="http://www.w3.org/1999/xlink">
<title>orientation</title>
<desc>Created using Figma</desc>
<g id="Canvas" transform="translate(-318 772)">
<g id="orientation">
<g id="Vector">
<use xlink:href="#path0_fill" transform="translate(344.039 -766.078)" fill="#7E2D25"/>
</g>
<g id="Vector">
<use xlink:href="#path1_fill" transform="translate(338.906 -771.202)" fill="#F14336"/>
</g>
<g id="Vector">
<use xlink:href="#path2_fill" transform="translate(339.258 -753.944)" fill="#CCCCCC"/>
</g>
<g id="Vector">
<use xlink:href="#path3_fill" transform="translate(335.844 -750.161)" fill="#F2F2F2"/>
</g>
<g id="Vector">
<use xlink:href="#path4_fill" transform="translate(322.097 -746.707)" fill="#518EF8"/>
</g>
<g id="Vector">
<use xlink:href="#path5_fill" transform="translate(318.8 -757.461)" fill="#FFD837"/>
</g>
<g id="Vector">
<use xlink:href="#path6_fill" transform="translate(318.8 -766.653)" fill="#28B446"/>
</g>
<g id="Vector">
<use xlink:href="#path7_fill" transform="translate(321.919 -764.338)" fill="#FFFFFF"/>
</g>
<g id="Group">
<g id="Vector">
<use xlink:href="#path8_fill" transform="translate(343.238 -766.877)" fill="#333333"/>
</g>
<g id="Vector">
<use xlink:href="#path9_fill" transform="translate(318 -772)" fill="#333333"/>
</g>
</g>
</g>
</g>
<defs>
<path id="path0_fill" d="M 4.01517 -1.85966e-07C 6.23233 -1.85966e-07 8.02925 1.795 8.02925 4.00844C 8.02925 6.22187 6.23233 8.01578 4.01517 8.01578C 1.79802 8.01578 -2.67478e-07 6.22187 -2.67478e-07 4.00844C -2.67478e-07 1.795 1.79802 -1.85966e-07 4.01517 -1.85966e-07Z"/>
<path id="path1_fill" d="M 1.23379 4.5482C 2.81746 1.82906 5.76827 2.08616e-08 9.14675 2.08616e-08C 14.1985 2.08616e-08 18.2936 4.08828 18.2936 9.13148C 18.2936 10.3963 18.0355 11.6004 17.5706 12.6959C 17.1046 13.7915 16.4305 14.7773 15.5987 15.6035C 14.9056 16.3392 14.2838 17.1164 13.725 17.9106C 10.0639 23.1178 9.14675 29.0628 9.14675 29.0628C 9.14675 29.0628 8.15071 22.6078 4.09077 17.258C 3.65989 16.6916 3.19497 16.1369 2.69374 15.6035L 2.69483 15.6035C 2.136 15.0499 1.64972 14.4239 1.24983 13.7404C 0.455295 12.3872 1.17566e-06 10.8126 1.17566e-06 9.13148C -7.70806e-05 7.46109 0.448957 5.895 1.23379 4.5482ZM 13.1609 9.13156C 13.1609 6.91813 11.364 5.12313 9.14683 5.12313C 6.92967 5.12313 5.13166 6.91813 5.13166 9.13156C 5.13166 11.345 6.92967 13.1389 9.14683 13.1389C 11.3639 13.1389 13.1609 11.345 13.1609 9.13156Z"/>
<path id="path2_fill" d="M 13.4531 0.709063L 13.4531 17.0345L 8.31395 11.9731L 7.87884 11.5441L -4.96744e-07 3.78273L 3.73893 8.58307e-08C 7.79887 5.34984 8.79491 11.8048 8.79491 11.8048C 8.79491 11.8048 9.71208 5.85984 13.3731 0.652657L 13.4531 0.709063Z"/>
<path id="path3_fill" d="M 16.8668 13.2517L 16.8668 14.3057C 16.8668 15.8931 15.6542 17.1984 14.1026 17.3474L -2.86583e-08 3.45375L 3.4137 -1.16348e-06L 11.2925 7.76133L 11.7276 8.19039L 16.8668 13.2517Z"/>
<path id="path4_fill" d="M 13.7475 -5.53131e-07L 27.8502 13.8937C 27.752 13.9033 27.6529 13.9086 27.5526 13.9086L -5.49284e-08 13.9086L 13.7475 -5.53131e-07Z"/>
<path id="path5_fill" d="M 24.1976 3.51766L 20.4587 7.30039L 17.045 10.7541L 3.29749 24.6627L 3.06178 24.6627C 1.37144 24.6627 1.31351e-08 23.2935 1.31351e-08 21.606L 21.3565 9.53674e-09C 21.7564 0.683516 22.2427 1.30953 22.8015 1.86313L 22.8004 1.86313C 23.3018 2.39656 23.7668 2.95125 24.1976 3.51766Z"/>
<path id="path6_fill" d="M 21.3565 9.19227L -2.98524e-08 30.7983L -2.98524e-08 3.05664C -2.98524e-08 1.36812 1.37144 -2.76566e-07 3.06178 -2.76566e-07L 21.3405 -2.76566e-07C 20.5556 1.3468 20.1066 2.91289 20.1066 4.58336C 20.1066 6.26445 20.562 7.83906 21.3565 9.19227Z"/>
<path id="path7_fill" d="M 4.87897 9.74156C 2.18867 9.74156 -1.31351e-07 7.55656 -1.31351e-07 4.87078C -1.31351e-07 2.185 2.18867 2.71797e-07 4.87897 2.71797e-07C 6.18131 2.71797e-07 7.40625 0.506875 8.32827 1.42734C 8.64067 1.73922 8.64067 2.24469 8.32827 2.55648C 8.01579 2.86836 7.50947 2.86836 7.19707 2.55648C 6.57728 1.93773 5.75395 1.59695 4.87897 1.59695C 3.0707 1.59695 1.59964 3.06555 1.59964 4.87078C 1.59964 6.67602 3.0707 8.14461 4.87897 8.14461C 6.4113 8.14461 7.70175 7.08984 8.05962 5.6693L 4.87897 5.6693C 4.43713 5.6693 4.07911 5.3118 4.07911 4.87078C 4.07911 4.42977 4.43713 4.07227 4.87897 4.07227L 8.95808 4.07227C 9.39991 4.07227 9.75793 4.42977 9.75793 4.87078C 9.75793 7.55656 7.56934 9.74156 4.87897 9.74156Z"/>
<path id="path8_fill" d="M 4.81488 -2.81334e-07C 2.15987 -2.81334e-07 1.91055e-07 2.15633 1.91055e-07 4.80687C 1.91055e-07 7.4568 2.15995 9.61273 4.81488 9.61273C 7.46933 9.61273 9.62889 7.4568 9.62889 4.80687C 9.62873 2.15633 7.46925 -2.81334e-07 4.81488 -2.81334e-07ZM 4.81488 8.0157C 3.04206 8.0157 1.59964 6.57617 1.59964 4.80687C 1.59964 3.03687 3.04198 1.59695 4.81488 1.59695C 6.58722 1.59695 8.02925 3.03687 8.02925 4.80687C 8.02909 6.57625 6.58715 8.0157 4.81488 8.0157Z"/>
<path id="path9_fill" d="M 30.0533 0C 26.6786 0 23.5185 1.73187 21.6945 4.5482L 3.86156 4.5482C 1.73228 4.5482 3.21095e-09 6.27766 3.21095e-09 8.40328L 3.21095e-09 36.1449C -7.82531e-05 38.2705 1.73228 40 3.86156 40L 31.6498 40C 31.7719 40 31.8982 39.9937 32.024 39.9814C 34.0122 39.7904 35.5114 38.141 35.5114 36.1449L 35.5114 18.8541C 36.009 18.173 36.535 17.5366 37.0789 16.9585C 37.9923 16.049 38.7105 14.9886 39.2135 13.8061C 39.7354 12.5766 40 11.2726 40 9.93016C 40 4.45461 35.5379 0 30.0533 0ZM 3.86156 6.14516L 20.856 6.14516C 20.3636 7.33898 20.1066 8.62594 20.1066 9.93C 20.1066 11.4873 20.4733 13.0201 21.1705 14.3993L 1.59964 34.1988L 1.59964 8.40328C 1.59964 7.1582 2.61431 6.14516 3.86156 6.14516ZM 1.62264 36.4493L 22.032 15.8015C 22.3293 16.2059 22.6564 16.588 23.012 16.9431C 23.0135 16.9449 23.0152 16.9466 23.0169 16.9484C 23.3288 17.2803 23.6346 17.6325 23.932 17.9976L 3.76749 38.3982C 2.66658 38.3528 1.7682 37.52 1.62264 36.4493ZM 24.9033 19.2886C 27.169 22.5595 28.3385 26.1424 28.8747 28.2198L 22.3896 21.8317L 24.9033 19.2886ZM 17.8521 26.4221L 30.0133 38.403L 6.00969 38.403L 17.8521 26.4221ZM 32.2159 38.3294L 18.9757 25.2854L 21.2658 22.9684L 33.9116 35.4248L 33.9116 36.1449C 33.9117 37.1945 33.2036 38.0783 32.2159 38.3294ZM 30.8084 30.1244C 30.8242 30.0792 30.8361 30.032 30.8437 29.9833C 30.8514 29.934 31.531 25.715 33.9117 21.3802L 33.9117 33.1813L 30.8084 30.1244ZM 37.7408 13.1823C 37.3175 14.1775 36.7119 15.0703 35.9411 15.8358C 35.9347 15.842 35.9286 15.8484 35.9225 15.8548C 35.2407 16.5784 34.5861 17.3844 33.977 18.25C 33.9769 18.2501 33.9768 18.2501 33.9768 18.2502C 31.9427 21.1433 30.7359 24.2274 30.0533 26.4723C 29.3171 24.0505 27.971 20.6527 25.6342 17.5734C 25.1806 16.9773 24.7011 16.4084 24.2084 15.8823C 24.1946 15.8661 24.1799 15.8503 24.1646 15.8352C 23.6536 15.3289 23.2103 14.7573 22.8463 14.1351C 22.1004 12.8648 21.7063 11.4107 21.7063 9.93C 21.7063 8.4575 22.0954 7.01148 22.8317 5.74805C 24.3228 3.18758 27.0899 1.59695 30.0532 1.59695C 34.6557 1.59695 38.4003 5.33516 38.4003 9.93C 38.4003 11.0571 38.1784 12.1516 37.7408 13.1823Z"/>
</defs>
</svg>
