<?xml version="1.0" standalone="no"?>
<!DOCTYPE svg PUBLIC "-//W3C//DTD SVG 1.1//EN" "http://www.w3.org/Graphics/SVG/1.1/DTD/svg11.dtd">
<svg xmlns="http://www.w3.org/2000/svg">
<metadata>Generated by Fontastic.me</metadata>
<defs>
<font id="nebuy-app" horiz-adv-x="512">
<font-face font-family="nebuy-app" units-per-em="512" ascent="480" descent="-32"/>
<missing-glyph horiz-adv-x="512" />

<glyph glyph-name="add" unicode="&#98;" d="M353 352l-60 0 0 31 60 0 0 60 31 0 0-60 60 0 0-31-60 0 0-60-31 0z m60-207l-258 0 14-49c5 1 10 2 15 2 10 0 20-3 27-8l176 0c8 5 17 8 28 8 27 0 48-21 48-48 0-27-21-49-48-49-27 0-49 22-49 49 0 7 1 13 4 19l-142 0c3-6 5-12 5-19 0-27-22-49-49-49-27 0-49 22-49 49 0 14 6 27 16 36l-98 326-43-1c0 0 0 0 0 0-5 0-10 5-10 11 0 5 5 10 10 10l50 0c0 0 0 0 0 0 6 0 10-4 11-9 0-1 0-1 0-2l16-51c1 0 1 0 2 0l136 0c1 78 65 141 143 141 80 0 144-64 144-144 0-49-25-92-62-118l-26-95c-1-1-1-1-1-2-2-4-5-7-10-7z m-27-95c0-16 13-29 29-29 15 0 28 13 28 29 0 15-13 28-28 28-16 0-29-13-29-28z m-230 0c0-16 12-29 28-29 15 0 28 13 28 29 0 15-13 28-28 28-16 0-28-13-28-28z m89 317c0-67 56-123 123-123 68 0 123 56 123 123 0 68-55 124-123 124-67 0-123-56-123-124z m161-202l19 70c-18-7-37-11-57-11-73 0-133 55-142 126l-133 0 56-185z"/>
<glyph glyph-name="heart" unicode="&#103;" d="M256 0c-7 0-13 3-18 8l-195 216 0 0c-28 32-43 74-43 118 0 11 1 23 3 34 0 0 0 0 0 0 15 79 78 136 151 136 38 0 74-15 102-43 28 28 64 43 102 43 85 0 154-76 154-170 0-46-17-90-47-122l-191-212c-5-5-11-8-18-8z m-198 241l195-217c1 0 2-1 3-1 1 0 2 1 3 1l191 213c0 0 0 0 0 0 27 28 41 65 41 105 0 81-60 147-133 147-36 0-69-15-94-43-2-3-5-4-8-4-3 0-5 1-7 4-25 28-59 43-95 43-63 0-117-49-130-117 0 0 0 0 0 0-2-10-3-20-3-30 0-38 13-74 37-101z"/>
<glyph glyph-name="remove" unicode="&#114;" d="M452 512l-392 0c-33 0-60-27-60-60l0-392c0-33 27-60 60-60l392 0c33 0 60 27 60 60l0 392c0 33-27 60-60 60z m40-452c0-22-18-40-40-40l-392 0c-22 0-40 18-40 40l0 392c0 22 18 40 40 40l392 0c22 0 40-18 40-40z m-124 294l-98-98 98-98c4-4 4-11 0-14-1-2-4-3-7-3-2 0-5 1-7 3l-98 98-98-98c-2-2-5-3-7-3-3 0-5 1-7 3-4 3-4 10 0 14l98 98-98 98c-4 4-4 11 0 14 3 4 10 4 14 0l98-98 98 98c4 4 11 4 14 0 4-3 4-10 0-14z"/>
<glyph glyph-name="send" unicode="&#116;" d="M512 256c0-141-115-256-256-256-141 0-256 115-256 256 0 141 115 256 256 256 141 0 256-115 256-256z m-130 116l5-3c2 2 1 5 0 7-2 2-5 3-7 2z m-284-103l-2 6c-2 0-4-3-4-5 0-3 1-5 3-6z m97-56l6 3c-1 1-2 2-3 3z m41-104l-6-2c1-2 3-4 5-4 3 0 5 1 6 3z m144 269l-284-103 4-12 284 103z m-285-114l96-56 7 11-97 56z m94-53l41-104 12 5-41 104z m52-105l146 263-11 6-146-263z m-50 112c-3-2-3-6-1-9 2-2 6-3 9 0z m195 149c3 2 3 6 1 9-3 3-7 3-9 1z m-187-158l187 158-8 10-187-159z"/>
<glyph glyph-name="user" unicode="&#118;" d="M257 158c-80 0-145 64-145 142l0 70c0 78 65 142 145 142 80 0 145-64 145-142l0-70c0-78-65-142-145-142z m0 331c-67 0-122-53-122-119l0-70c0-66 55-119 122-119 67 0 122 53 122 119l0 70c0 66-55 119-122 119z m194-489l-390 0c-33 0-61 27-61 60l0 53c0 20 10 47 58 60l58 16c7 2 13-2 15-8 1-6-2-12-8-14l-59-15c-41-12-41-32-41-39l0-53c0-20 17-37 38-37l390 0c21 0 38 17 38 37l0 53c0 18-14 31-42 39l-55 15c-6 2-10 8-8 14 2 6 8 9 14 8l56-16c48-13 58-40 58-60l0-53c0-33-28-60-61-60z"/>
<glyph glyph-name="view-order" unicode="&#119;" d="M108 492l296 0 0 20-296 0z m384-88l0-296 20 0 0 296z m-88-384l-296 0 0-20 296 0z m-384 88l0 296-20 0 0-296z m88-88c-49 0-88 39-88 88l-20 0c0-60 48-108 108-108z m384 88c0-49-39-88-88-88l0-20c60 0 108 48 108 108z m-88 384c49 0 88-39 88-88l20 0c0 60-48 108-108 108z m-296 20c-60 0-108-48-108-108l20 0c0 49 39 88 88 88z m102-168l-20 1c0 0 0-1 0-1z m51 50l0 20z m51-50l19 0c0 0 0 1 0 1z m-83-23l0 23-39 0 0-23z m0 22c1 10 3 16 10 22l-27 28c-12-12-21-31-22-48z m10 22c6 6 14 9 22 9l0 40c-19 0-36-8-49-21z m22 9c7 0 15-3 21-9l27 28c-13 13-30 21-48 21z m21-9c7-6 10-12 10-22l39 2c-1 17-10 36-22 48z m10-21l0-23 39 0 0 23z m-83-226l0 20c0 0-1 0-1 0z m-51 47l-19-2c0 0 0 0 0 0z m-10 152l19 2c0 0 0 0 0 0z m2 4l0 20c-2 0-4-1-6-1z m222 0l5 19c-1 0-3 1-5 1z m2-4l-19 2c0 0 0 0-1 0z m-11-152l20-1c0 0 0 0 0 0z m-50-27l-104 0 0-40 104 0z m-105 0c-7 0-14 2-20 8l-27-29c13-12 30-19 48-19z m-20 8c-7 6-9 11-10 21l-39-4c2-16 11-35 22-46z m-10 20l-11 153-39-3 11-153z m-11 153c1-4 0-7-2-10l-33 21c-2-3-4-10-4-14z m-2-10c-2-3-5-6-9-7l-12 38c-4-2-10-6-12-10z m-15-8l222 0 0 40-222 0z m216 1c-4 1-7 4-9 7l33 21c-3 4-9 8-13 10z m-9 7c-2 3-3 6-2 10l39-3c0 4-2 11-4 14z m-3 10l-10-152 39-3 11 152z m-10-152c-1-9-3-15-10-21l27-29c11 12 20 30 22 47z m-10-21c-6-5-13-8-21-8l0-40c18 0 35 7 48 19z"/>
<glyph glyph-name="search" unicode="&#122;" d="M498 14c-19-19-49-19-68 0l-85 85c-35-22-76-36-121-36-124 0-224 101-224 225 0 124 100 224 224 224 124 0 225-100 225-224 0-45-14-86-36-121l85-85c19-19 19-49 0-68z m-274 434c-88 0-160-72-160-160 0-89 72-161 160-161 89 0 161 72 161 161 0 88-72 160-161 160z"/>
<glyph glyph-name="location" unicode="&#67;" d="M256 228c53 0 96 43 96 96 0 53-43 96-96 96-53 0-96-43-96-96 0-53 43-96 96-96z m0 176c44 0 80-36 80-80 0-44-36-80-80-80-44 0-80 36-80 80 0 44 36 80 80 80z m0 108c-106 0-192-85-192-192 0-112 96-227 166-307 0 0 12-13 25-13 0 0 2 0 2 0 13 0 25 13 25 13 70 80 166 195 166 307 0 107-86 192-192 192z m2-478c0 0-1-1-2-2 0 1-2 2-2 2-59 68-158 182-158 286 0 88 72 160 160 160 88 0 160-72 160-160 0-104-99-218-158-286z"/>
<glyph glyph-name="time" unicode="&#71;" d="M256 469c-118 0-213-96-213-213 0-117 95-213 213-213 118 0 213 96 213 213 0 117-96 213-213 213z m0-383c-94 0-170 76-170 170 0 94 76 170 170 170 94 0 170-76 170-170 0-94-76-170-170-170z m11 276l-32 0 0-127 112-67 16 26-96 57z"/>
<glyph glyph-name="activate" unicode="&#101;" d="M256 512c-141 0-256-115-256-256 0-141 115-256 256-256 141 0 256 115 256 256 0 141-115 256-256 256z m0-496c-133 0-240 107-240 240 0 133 107 240 240 240 133 0 240-107 240-240 0-133-107-240-240-240z m79 380l-15-20c37-23 62-64 62-112 0-73-57-132-126-132-69 0-126 59-126 132 0 48 25 89 62 112l-15 20c-45-28-75-78-75-135 0-88 69-159 154-159 85 0 154 71 154 159 0 57-30 107-75 135z m-65 14l-28 0 0-132 28 0z"/>
<glyph glyph-name="delete" unicode="&#72;" d="M256 512c-141 0-256-115-256-256 0-141 115-256 256-256 141 0 256 115 256 256 0 141-115 256-256 256z m0-496c-133 0-240 107-240 240 0 133 107 240 240 240 133 0 240-107 240-240 0-133-107-240-240-240z m73 342l0 26c0 14-12 26-26 26l-77 0c-14 0-25-12-25-26l0-26-64 0 0-25 25 0 0-205c0-14 12-26 26-26l153 0c14 0 26 12 26 26l0 205 26 0 0 25z m-103 26l77 0 0-26-77 0z m115-256l-153 0 0 205 153 0z m-89 179l-26 0 0-153 26 0z m51 0l-26 0 0-153 26 0z"/>
<glyph glyph-name="rate" unicode="&#73;" d="M256 512c-141 0-256-115-256-256 0-141 115-256 256-256 141 0 256 115 256 256 0 141-115 256-256 256z m0-496c-133 0-240 107-240 240 0 133 107 240 240 240 133 0 240-107 240-240 0-133-107-240-240-240z m160 290l-117 0-30 110c-1 6-7 11-13 11-6 0-12-5-13-11l-40-110-107 0c-8 0-11-5-11-13 0-5 3-9 6-12 2-1 89-68 89-68 0 0-33-106-34-108 0-2-1-3-1-5 0-8 7-15 14-15 3 0 6 1 8 3l89 67c0 0 87-66 89-67 2-2 5-3 8-3 7 0 14 7 14 15 0 2-1 3-1 5-1 2-34 108-34 108 0 0 87 67 89 68 3 3 6 7 6 12 0 8-3 13-11 13z m-50-35c-1-1-65-40-65-40 0 0 31-83 32-84 0-1 0-2 0-3 0-5-3-9-8-9-2 0-3 1-5 2-1 1-64 48-64 48l-61-47c-2-1-3-1-5-1-5 0-8 4-8 8 0 1 0 2 0 3 1 1 29 83 29 83 0 0-63 39-64 40-2 1-4 4-4 7 0 5 2 6 7 6l74 0 24 67c1 4 4 6 8 6 4 0 7-2 8-6l20-67 79-1c5 0 7 0 7-5 0-3-2-6-4-7z"/>
<glyph glyph-name="eye" unicode="&#74;" d="M256 512c-141 0-256-115-256-256 0-141 115-256 256-256 141 0 256 115 256 256 0 141-115 256-256 256z m0-496c-133 0-240 107-240 240 0 133 107 240 240 240 133 0 240-107 240-240 0-133-107-240-240-240z m61 254c-5 22-20 39-40 44-13-4-23-18-23-34 0-20 14-36 32-36 15 0 27 11 31 26z m-42 10c0 6 5 12 11 12 6 0 11-6 11-12 0-7-5-12-11-12-6 0-11 5-11 12z m-10 95c-61 0-163-53-163-119 0-66 102-119 163-119 60 0 162 53 162 119 0 66-102 119-162 119z m0-215c-51 0-141 43-141 96 0 53 90 96 141 96 50 0 140-43 140-96 0-53-90-96-140-96z m0 168c-36 0-65-32-65-72 0-40 29-72 65-72 35 0 64 32 64 72 0 40-29 72-64 72z m0-120c-24 0-44 22-44 48 0 26 20 48 44 48 23 0 43-22 43-48 0-26-20-48-43-48z"/>
<glyph glyph-name="view" unicode="&#75;" d="M256 512c-141 0-256-115-256-256 0-141 115-256 256-256 141 0 256 115 256 256 0 141-115 256-256 256z m0-496c-133 0-240 107-240 240 0 133 107 240 240 240 133 0 240-107 240-240 0-133-107-240-240-240z m150 106l-66 69c15 21 23 47 23 75 0 70-54 127-122 127-67 0-122-57-122-127 0-71 55-127 122-127 33 0 62 13 84 35l66-68c4-5 11-5 15 0 5 4 5 12 0 16z m-165 41c-54 0-98 46-98 103 0 56 44 102 98 102 55 0 99-46 99-102 0-57-44-103-99-103z"/>
<glyph glyph-name="confirm" unicode="&#77;" d="M256 512c-141 0-256-115-256-256 0-141 115-256 256-256 141 0 256 115 256 256 0 141-115 256-256 256z m0-496c-133 0-240 107-240 240 0 133 107 240 240 240 133 0 240-107 240-240 0-133-107-240-240-240z m137 340l-14 19-153-219-76 108-13-20 87-125 2 4 2-4z"/>
<glyph glyph-name="dollar" unicode="&#105;" d="M394 169c0-28-11-51-32-70-21-18-51-29-91-31l0-61-27 0 0 60c-26 2-50 7-73 15-23 9-40 20-53 34l15 30c12-12 28-22 48-30 20-8 41-13 63-15l0 140c-24 6-44 12-61 19-16 7-30 17-41 30-10 13-15 31-15 53 0 27 9 50 29 68 20 19 49 30 88 33l0 61 27 0 0-60c20-1 39-5 58-11 19-5 35-13 49-22l-13-32c-15 10-30 17-46 22-16 5-32 8-48 9l0-140c26-7 47-13 64-20 16-6 30-16 42-29 11-14 17-32 17-53z m-229 175c0-18 7-32 20-42 14-9 34-18 59-24l0 132c-26-2-46-9-59-22-13-12-20-26-20-44z m106-243c28 2 49 9 63 21 14 12 21 26 21 44 0 20-7 34-22 43-14 10-35 18-62 25z"/>
<glyph glyph-name="euro" unicode="&#110;" d="M349 216l-335 0c-8 0-14 6-14 13 0 7 6 13 14 13l335 0c8 0 14-6 14-13 0-7-6-13-14-13z m39 63l-374 0c-8 0-14 6-14 13 0 8 6 13 14 13l374 0c8 0 14-5 14-13 0-7-6-13-14-13z m-61-279c-156 0-282 115-282 256 0 141 126 256 282 256 66 0 129-21 180-58 6-5 7-13 2-18-5-6-14-7-20-2-45 33-103 52-162 52-140 0-254-103-254-230 0-127 114-230 254-230 59 0 117 19 162 52 6 5 15 4 20-2 5-5 4-13-2-18-51-37-114-58-180-58z"/>
<glyph glyph-name="camera" unicode="&#117;" d="M446 404l-59 0-18 50c-6 17-22 25-39 25l-153 0c-18 0-34-8-39-25l-18-50-59 0c-38 0-61-30-61-67l0-242c0-37 23-62 61-62l385 0c38 0 60 25 60 62l0 242c0 37-22 67-60 67z m35-309c0-22-13-37-35-37l-385 0c-23 0-36 15-36 37l0 242c0 22 13 43 36 43l69 0c5 0 11 2 13 7l21 60c2 6 7 7 13 7l153 0c6 0 11-2 13-8l21-59c2-6 7-7 13-7l69 0c22 0 35-21 35-43z m-228 268c-76 0-137-60-137-134 0-74 61-134 137-134 76 0 138 60 138 134 0 74-62 134-138 134z m0-241c-60 0-110 48-110 107 0 59 50 108 110 108 61 0 110-49 110-108 0-59-49-107-110-107z"/>
<glyph glyph-name="location-active" unicode="&#121;" d="M480 314c0 110-100 198-224 198-124 0-224-88-224-198 0-109 224-314 224-314 0 0 224 205 224 314z m-328 4c0 50 47 92 104 92 57 0 104-41 104-92 0-50-46-92-104-92-57 0-104 42-104 92z"/>
<glyph glyph-name="location-1" unicode="&#65;" d="M256 512c-118 0-213-95-213-212 0-150 192-290 200-296 4-3 8-4 13-4 4 0 9 1 13 4 8 5 200 136 200 296 0 117-95 212-213 212z m0-462c-41 33-168 143-168 250 0 92 75 167 168 167 93 0 168-75 168-167 0-115-126-219-168-250z m2 345c-49 0-89-40-89-89 0-49 40-89 89-89 50 0 90 40 90 89 0 49-40 89-90 89z m0-155c-36 0-66 30-66 66 0 37 30 66 66 66 37 0 67-29 67-66 0-36-30-66-67-66z"/>
<glyph glyph-name="book" unicode="&#78;" d="M316 410c-71 0-128-57-128-128 0-90 115-174 120-177 2-2 5-3 8-3 2 0 5 1 7 3 5 3 121 81 121 177 0 70-58 128-128 128z m0-277c-25 19-101 85-101 149 0 56 45 101 101 101 55 0 101-45 101-101 0-68-76-131-101-149z m1 206c-29 0-53-24-53-53 0-29 24-53 53-53 30 0 54 24 54 53 0 29-24 53-54 53z m0-93c-22 0-40 18-40 40 0 22 18 40 40 40 22 0 40-18 40-40 0-22-18-40-40-40z m107 266l-300 0c-47 0-87-33-87-72l0-48-19 0c-11 0-18-6-18-16 0-9 7-15 18-15l19 0 0-51-19 0c-11 0-18-6-18-15 0-9 7-15 18-15l19 0 0-48-19 0c-11 0-18-6-18-15 0-9 7-15 18-15l19 0 0-51-19 0c-11 0-18-6-18-15 0-10 7-16 18-16l19 0 0-48c0-39 40-72 87-72l300 0c48 0 88 33 88 72l0 368c0 39-40 72-88 72z m-351-440l0 48 18 0c11 0 19 6 19 16 0 9-8 15-19 15l-18 0 0 51 18 0c11 0 19 6 19 15 0 9-8 15-19 15l-18 0 0 48 18 0c11 0 19 6 19 15 0 9-8 15-19 15l-18 0 0 51 18 0c11 0 19 6 19 15 0 10-8 16-19 16l-18 0 0 48c0 24 22 42 51 42l0-452c-29 0-51 18-51 42z m402 0c0-24-22-42-51-42l-263 0 0 452c56 0 263 0 263 0 29 0 51-18 51-42z"/>
<glyph glyph-name="gallery" unicode="&#104;" d="M428 500l-348 0c-40 0-73-32-73-72l0-344c0-40 33-72 73-72l348 0c40 0 72 32 72 72l0 344c0 40-32 72-72 72z m43-416c0-24-19-43-43-43l-348 0c-24 0-44 19-44 43l0 52 117 128 158-142 88 72 72-59 0-51z m0 88l-72 60-87-72-161 145-115-126 0 249c0 24 20 43 44 43l348 0c24 0 43-19 43-43l0-256z m-116 113c40 0 73 32 73 71 0 40-33 72-73 72-40 0-72-32-72-72 0-39 32-71 72-71z m0 114c24 0 44-19 44-43 0-23-20-43-44-43-24 0-43 20-43 43 0 24 19 43 43 43z"/>
<glyph glyph-name="cancel" unicode="&#79;" d="M256 512c-141 0-256-115-256-256 0-141 115-256 256-256 141 0 256 115 256 256 0 141-115 256-256 256z m0-496c-133 0-240 107-240 240 0 133 107 240 240 240 133 0 240-107 240-240 0-133-107-240-240-240z m137 340l-20 19-108-108-109 108-19-19 108-109-108-108 19-20 109 109 108-109 20 20-109 108z"/>
<glyph glyph-name="chat" unicode="&#80;" d="M256 512c-141 0-256-115-256-256 0-141 115-256 256-256 141 0 256 115 256 256 0 141-115 256-256 256z m0-496c-133 0-240 107-240 240 0 133 107 240 240 240 133 0 240-107 240-240 0-133-107-240-240-240z m27 189c-1-20-17-36-37-36l-51 0c0-1 0-1 0-1-4 2-9 0-11-4l-46-37 0 116c0 21 16 37 36 37l0 9c0 4 0 7 1 10l-1 0c-30 0-55-25-55-56l0-37c0-3 1-93 1-94-1-3 0-6 4-8 4-3 8-2 12 2l57 44 53 0c30 0 54 25 55 55l-18 0z m-27 122c-15 0-28-13-28-28 0-16 13-28 28-28 15 0 27 12 27 28 0 15-12 28-27 28z m0-38c-5 0-10 5-10 10 0 5 5 9 10 9 5 0 9-4 9-9 0-5-4-10-9-10z m72 38c-15 0-27-13-27-28 0-16 12-28 27-28 15 0 27 12 27 28 0 15-12 28-27 28z m0-38c-5 0-9 5-9 10 0 5 4 9 9 9 5 0 9-4 9-9 0-5-4-10-9-10z m82 47c0 31-25 57-55 57l-127 0c-30 0-54-26-54-57l0-75c0-31 24-56 54-56l108 0 57-44c4-4 8-5 12-2 4 2 5 5 5 8 0 1 0 91 0 94z m-18-154l-47 38c-2 4-7 5-11 4 0 0 0 0 0 0l-106 0c-20 0-36 17-36 37l0 75c0 21 16 38 36 38l127 0c20 0 37-17 37-38z"/>
<glyph glyph-name="edit" unicode="&#102;" d="M418 112c0-19-15-35-34-35l-272 0c-19 0-34 16-34 35l0 273c0 18 15 33 34 33l159 0 0 23-159 0c-32 0-57-25-57-56l0-273c0-31 25-57 57-57l272 0c32 0 57 26 57 57l0 159-23 0 0-159z m26 332c-17 18-47 18-64 0l-153-152c-1-1-2-3-3-5l-16-65c-1-3 0-7 3-10 2-2 5-4 8-4 1 0 2 0 3 1l64 16c2 0 4 1 6 3l152 152c8 9 13 20 13 32 0 12-5 24-13 32z m-166-198l-43-11 11 43 126 126 32-32z m150 150l-8-8-32 32 8 8c8 9 23 9 32 0 4-4 6-10 6-16 0-6-2-12-6-16z"/>
<glyph glyph-name="attach-plus" unicode="&#81;" d="M384 283l0-18c0-3-1-5-3-6-1-2-3-3-6-3l-101 0 0-101c0-2-1-4-2-6-2-2-4-3-7-3l-18 0c-3 0-5 1-7 3-1 2-2 4-2 6l0 101-101 0c-3 0-5 1-6 3-2 1-3 3-3 6l0 18c0 3 1 5 3 7 1 2 3 3 6 3l101 0 0 100c0 3 1 5 2 7 2 1 4 2 7 2l18 0c3 0 5-1 7-2 1-2 2-4 2-7l0-100 101 0c3 0 5-1 6-3 2-2 3-4 3-7z m37-128l0 238c0 13-5 23-14 32-9 9-20 14-32 14l-238 0c-12 0-23-5-32-14-9-9-14-19-14-32l0-238c0-12 5-23 14-32 9-9 20-13 32-13l238 0c12 0 23 4 32 13 9 9 14 20 14 32z m36 238l0-238c0-22-8-42-24-58-16-16-35-24-58-24l-238 0c-23 0-42 8-58 24-16 16-24 36-24 58l0 238c0 23 8 42 24 58 16 16 35 24 58 24l238 0c23 0 42-8 58-24 16-16 24-35 24-58z"/>
<glyph glyph-name="security" unicode="&#82;" d="M293 127l-73 0c-9 0-18 4-24 11-6 6-8 13-7 21 2 22 16 75 22 99-18 13-28 34-28 56 0 39 33 71 74 71 40 0 73-32 73-71 0-22-10-43-28-56 6-24 20-76 22-99 1-8-1-15-7-22-6-6-15-10-24-10z m-71 33l69 0c-4 29-24 100-24 101-2 8 1 15 8 19 14 7 22 20 22 34 0 21-18 39-40 39-23 0-41-18-41-39 0-14 8-27 22-34 7-4 10-11 8-19 0-1-19-72-24-101z m217-160l-366 0c-40 0-73 32-73 72l0 368c0 40 33 72 73 72l366 0c40 0 73-32 73-72l0-368c0-40-33-72-73-72z m-366 479c-22 0-40-17-40-39l0-368c0-22 18-39 40-39l366 0c22 0 40 17 40 39l0 368c0 22-18 39-40 39z"/>
<glyph glyph-name="support" unicode="&#84;" d="M256 512c35 0 68-7 99-20 32-14 59-32 82-55 23-23 41-50 55-82 13-31 20-64 20-99 0-35-7-68-20-99-14-32-32-59-55-82-23-23-50-41-82-55-31-13-64-20-99-20-35 0-68 7-99 20-32 14-59 32-82 55-23 23-41 50-55 82-13 31-20 64-20 99 0 35 7 68 20 99 14 32 32 59 55 82 23 23 50 41 82 55 31 13 64 20 99 20z m0-37c-36 0-71-8-103-25l55-56c16 6 32 8 48 8 16 0 32-2 48-8l55 56c-32 17-67 25-103 25z m-194-322l56 55c-6 16-8 32-8 48 0 16 2 32 8 48l-56 55c-17-32-25-67-25-103 0-36 8-71 25-103z m194-116c36 0 71 8 103 25l-55 56c-16-6-32-8-48-8-16 0-32 2-48 8l-55-56c32-17 67-25 103-25z m0 109c30 0 56 11 78 32 21 22 32 48 32 78 0 30-11 56-32 78-22 21-48 32-78 32-30 0-56-11-78-32-21-22-32-48-32-78 0-30 11-56 32-78 22-21 48-32 78-32z m138 62l56-55c17 32 25 67 25 103 0 36-8 71-25 103l-56-55c6-16 8-32 8-48 0-16-2-32-8-48z"/>
<glyph glyph-name="requests-active" unicode="&#120;" d="M256 476c91 0 165-56 165-125 0-69-74-125-165-125-91 0-165 56-165 125 0 69 74 125 165 125z m0 36c-118 0-213-72-213-161 0-89 213-351 213-351 0 0 213 262 213 351 0 89-95 161-213 161z m-35-192l-8 11-19-2 24 32-47 0 0-86 81 0 0 86z m134 82l-54 0c3 1 6 3 8 4 10 5 15 12 15 18 0 6-4 13-8 17-5 3-12 5-19 5-7 0-14-2-20-5-8-5-15-14-20-22l-1-1c-2 3-4 9-6 11-4 5-9 9-15 12-6 3-13 5-20 5-8 0-14-3-19-6-5-4-9-12-9-18 0-3 1-6 4-10 3-3 9-7 16-10l-50 0 1-34 92 0 0 34 12 0 0-34 93 0z m-145 11c-4 2-6 4-7 5-2 2-2 4-2 6 0 2 1 6 4 8 3 2 6 3 10 3l0 0c4 0 8-1 12-3 6-3 12-11 16-17 2-4 4-7 5-10-19 1-31 5-38 8z m64 7c3 4 7 10 11 12 4 2 8 3 12 3l0 0c4 0 7-1 9-2 3-2 4-5 4-7 0-2-2-7-9-11-7-4-19-8-37-11 2 6 5 12 10 16z m44-91l-18 2-9-11-30 41 0-86 80 0 0 86-47 0z"/>
<glyph glyph-name="requests" unicode="&#68;" d="M256 512c-118 0-213-80-213-178 0-94 193-314 201-324l8-8c1-1 2-2 4-2 2 0 3 1 4 2l8 8c8 10 201 230 201 324 0 98-95 178-213 178z m0-24c102 0 185-69 185-154 0-74-146-251-185-296-39 45-185 222-185 296 0 85 83 154 185 154z m-36-166l-9 11-19-3 25 33-49 0 0-87 84 0 0 87z m137 82l-55 0c3 2 6 3 9 4 9 5 15 12 15 19 0 5-4 13-9 16-5 3-11 5-19 5-7 0-14-2-20-5-9-4-16-14-21-22-1 0-1 0-1-1-2 3-4 9-7 12-4 4-9 8-15 11-6 3-13 5-21 5-7 0-14-2-19-6-5-4-9-12-9-17 0-4 1-7 4-10 4-4 9-8 16-11l-50 0 0-34 95 0 0 34 12 0 0-34 95 0z m-148 11c-4 2-6 4-8 5-1 2-2 5-2 6 0 2 2 6 5 8 2 2 6 3 9 3l0 0c5 0 9-1 13-3 6-3 12-11 16-17 3-3 4-7 5-10-19 2-31 5-38 8z m65 8c4 3 8 9 12 11 4 2 8 3 12 3l1 0c3 0 6-1 9-2 2-2 3-4 3-6 0-3-1-8-9-12-7-4-19-8-38-11 2 6 6 12 10 17z m46-93l-19 3-9-11-31 40 0-86 83 0 0 87-49 0z"/>
<glyph glyph-name="orders-active" unicode="&#69;" d="M502 512l-492 0c-5 0-10-5-10-11l0-490c0-6 5-11 10-11l492 0c5 0 10 5 10 11l0 490c0 6-5 11-10 11z m-111-127l0-65c0-77-61-140-135-140-74 0-135 63-135 140l0 67c-8 4-13 13-13 23 0 13 10 24 24 24 13 0 23-11 23-24 0-10-5-19-13-23l0-67c0-65 51-119 114-119 63 0 114 54 114 119l0 65c-9 4-15 14-15 25 0 14 11 26 25 26 15 0 26-12 26-26 0-11-6-21-15-25z"/>
<glyph glyph-name="orders" unicode="&#70;" d="M502 512l-492 0c-5 0-10-5-10-11l0-490c0-6 5-11 10-11l492 0c5 0 10 5 10 11l0 490c0 6-5 11-10 11z m-10-491l-472 0 0 470 472 0 0-470z m-371 366l0-67c0-77 61-140 135-140 74 0 135 63 135 140l0 65c9 4 15 14 15 25 0 14-11 26-25 26-14 0-26-12-26-26 0-11 6-21 15-25l0-65c0-65-51-119-114-119-63 0-114 54-114 119l0 67c8 4 14 13 14 23 0 13-11 24-24 24-14 0-24-11-24-24 0-10 5-19 13-23z"/>
<glyph glyph-name="main-icon-active" unicode="&#85;" d="M216 90c-24 0-43-20-43-45 0-25 19-45 43-45 23 0 42 20 42 45 0 25-19 45-42 45z m191 0c-24 0-43-20-43-45 0-25 19-45 43-45 23 0 42 20 42 45 0 25-19 45-42 45z m54 281l-1 0-52 0c-4 0-9 0-11 0l-77 0-76 0c-4 0-9 0-12 0l-52 0-1 0c-20-4-35-17-44-34l-37 167c-1 5-5 8-9 8l-79 0c-6 0-10-4-10-10 0-6 4-10 10-10l71 0 69-311c0 0 0 0 0 0 5-27 25-47 51-52 1-1 2-1 3-1l1 0 6 0 0 10 1-10 108 0 107 0 0 10 1-10 7 0 0 0c2 0 3 0 4 1 26 5 46 25 51 52l21 112c7 36-16 71-50 78z"/>
<glyph glyph-name="main-icon" unicode="&#86;" d="M216 91c-24 0-43-20-43-46 0-25 19-45 43-45 23 0 42 20 42 45 0 26-19 46-42 46z m0-71c-14 0-24 12-24 25 0 14 10 26 24 26 13 0 23-12 23-26 0-13-10-25-23-25z m191 71c-24 0-43-20-43-46 0-25 19-45 43-45 23 0 42 20 42 45 0 26-19 46-42 46z m0-71c-13 0-24 12-24 25 0 14 11 26 24 26 13 0 23-12 23-26 0-13-10-25-23-25z m54 355l-1 0-52 0c-4 0-9 0-11 0l-77-1-76 1c-4 0-9 0-12 0l-52 0-1 0c-20-4-35-18-44-35l-37 167c-1 4-5 5-9 5l-79 0c-6 0-10-5-10-10 0-6 4-10 10-10l71 0 69-312c0 0 0 2 0 2 5-28 25-48 51-53 1 0 2 0 3 0l1 0 6 0 0 10 1-10 108 1 107-1 0 10 1-10 7 0 0 0c2 0 3 1 4 1 26 5 46 26 51 53l21 113c7 36-16 72-50 79z m31-76l-21-112c-3-19-17-34-36-37l-1 0c-1-1-1-1-1-1l-113 1-113-1c0 0-1 0-1 1l-2 0c-18 3-32 18-36 37l-21 112c-4 26 11 50 34 56l52-1c3 1 5 1 10 0l77 0 78 0c3 1 4 1 9 0l51 1c24-6 39-30 34-56z"/>
<glyph glyph-name="deliver-active" unicode="&#87;" d="M200 111l-99 0 138 340z m44 228l-1-267-26 33z m17-268l1 267 25-234z m43 39l-37 340 137-340z"/>
<glyph glyph-name="deliver" unicode="&#88;" d="M399 160l-137 342c-1 3-4 4-7 4 0 0 0 0 0 0-1 1-3 2-4 2 0 0 0 0 0 0-3 0-6-2-7-5l-138-343c-2-4 0-8 4-9 1-1 2-1 3-1 0 0 1 0 2 1 1-1 2-1 3-1l93 0 34-42c0 0 0 0 0 0 1-3 4-6 7-6 3 0 6 2 7 5 1 0 1 0 1 0l34 42 93 1c1 0 2 0 3 0 1 0 1 0 2 0 1 0 2 0 3 0 4 2 6 6 4 10z m-191 5l-84 0 117 290z m37 195l0-228-22 28z m15-229l0 228 22-200z m37 33l-32 290 116-289z"/>
<glyph glyph-name="profile-active" unicode="&#89;" d="M256 0c-61 0-120 22-166 61l116 40 0 10c-1 1-1 1-1 2 0 1 0 1 0 2l0 30c16-9 33-14 51-14 18 0 35 5 51 14l0-30c0-1 0-2 0-3l-2-11 116-41c-46-39-104-60-165-60z m-74 201c-17 25-27 59-27 96 0 79 45 144 101 144 56 0 101-65 101-144 0-37-10-71-26-96-7-10-14-18-21-25-16-14-34-22-54-22-20 0-38 8-53 22-8 7-15 15-21 25z m259-122l-110 38 0 47c30 30 50 79 50 133 0 92-56 167-125 167-69 0-125-75-125-167 0-54 20-103 50-133l0-46-110-39c-46 48-71 111-71 177 0 141 115 256 256 256 141 0 256-115 256-256 0-67-25-129-71-177z"/>
<glyph glyph-name="profile" unicode="&#90;" d="M512 256c0 141-115 256-256 256-141 0-256-115-256-256 0-63 23-123 64-169l0-1 12-12 5-5 0 0c48-44 109-69 175-69 65 0 127 25 174 69l1 0 4 4 13 13-1 0c42 47 65 107 65 170z m-256-234c-56 0-110 19-152 55l107 38-1 8c0 1 0 1 0 2-1 1-1 1-1 2l0 28c15-9 30-14 47-14 17 0 32 5 47 14l0-28c0-1 0-2-1-3l-1-10 106-37c-42-36-95-55-151-55z m-68 184c-15 23-25 54-25 88 0 72 42 131 93 131 51 0 93-59 93-131 0-34-10-65-25-88-5-9-12-17-19-23-14-13-31-20-49-20-18 0-35 7-49 20-7 6-14 14-19 23z m237-112l-101 35 0 43c28 28 46 72 46 122 0 84-51 153-114 153-63 0-114-69-114-153 0-50 18-94 46-122l0-43-102-35c-41 44-64 101-64 162 0 129 105 234 234 234 129 0 234-105 234-234 0-61-23-119-65-162z"/>
<glyph glyph-name="wallet" unicode="&#97;" d="M501 85c0-29-24-53-53-53l-384 0c-29 0-53 24-53 53l0 310c0 23 19 42 42 42l215 0 87 32c5 2 11-1 13-7l10-25 38 0c24 0 43-19 43-42l0-22c23 0 42-19 42-42z m-448 331c-11 0-21-10-21-21 0-12 10-22 21-22l39 0c0 0 0 1 0 1l118 42z m311-2l-12 31 0 0-22-8 0 0-58-21-1 0-117-43 224 0z m73-19c0 11-9 21-21 21l-31 0 16-43 36 0z m22-43l-406 0c-7 0-15 2-21 6l0-273c0-17 14-32 32-32l384 0c18 0 32 15 32 32l0 75-43 0c-23 0-42 19-42 43 0 23 19 42 42 42l43 0 0 86c0 11-10 21-21 21z m21-171l0 43-43 0c-11 0-21-10-21-21 0-12 10-22 21-22z m-43 32l22 0 0-21-22 0z"/>
<glyph glyph-name="message-active" unicode="&#99;" d="M256 512c-122 0-221-90-221-200 0-66 36-127 95-165 3-67-20-127-21-127l-7-20 160 112c118 3 215 92 215 200 0 110-99 200-221 200z m-107-243c-23 0-42 19-42 42 0 23 19 42 42 42 23 0 42-19 42-42 0-23-19-42-42-42z m107 0c-23 0-42 19-42 42 0 23 19 42 42 42 23 0 42-19 42-42 0-23-19-42-42-42z m109 0c-23 0-42 19-42 42 0 23 19 42 42 42 23 0 42-19 42-42 0-23-19-42-42-42z"/>
<glyph glyph-name="message" unicode="&#100;" d="M256 512c-122 0-221-90-221-200 0-66 36-127 95-165 3-67-20-127-21-127l-7-20 160 112c118 3 215 92 215 200 0 110-99 200-221 200z m2-387l-130-91c7 24 17 69 15 117l0 4-3 2c-57 34-92 93-92 155 0 103 94 187 208 187 114 0 208-84 208-187 0-101-92-185-204-187z m-109 228c-23 0-42-19-42-42 0-23 19-42 42-42 23 0 42 19 42 42 0 23-19 42-42 42z m0-71c-16 0-29 13-29 29 0 16 13 29 29 29 16 0 29-13 29-29 0-16-13-29-29-29z m107 71c-23 0-42-19-42-42 0-23 19-42 42-42 23 0 42 19 42 42 0 23-19 42-42 42z m0-71c-16 0-29 13-29 29 0 16 13 29 29 29 16 0 29-13 29-29 0-16-13-29-29-29z m109 71c-23 0-42-19-42-42 0-23 19-42 42-42 23 0 42 19 42 42 0 23-19 42-42 42z m0-71c-16 0-29 13-29 29 0 16 13 29 29 29 16 0 29-13 29-29 0-16-13-29-29-29z"/>
<glyph glyph-name="report" unicode="&#113;" d="M507 67l-216 423c-8 14-21 22-35 22-14 0-27-8-35-22l-216-423c-7-14-7-30 0-45 8-14 21-22 35-22l432 0c15 0 27 8 35 22 7 15 7 31 0 45z m-22-30c-1-3-5-9-13-9l-432 0c-8 0-12 6-13 9-1 2-4 9 0 16l216 422c4 8 10 9 13 9 3 0 9-1 13-9l216-422c4-7 1-14 0-16z m-229 356c-21 0-38-20-38-43l0-140c0-24 17-43 38-43 21 0 38 19 38 43l0 140c0 23-17 43-38 43z m13-183c0-8-6-15-13-15-7 0-13 7-13 15l0 140c0 8 6 15 13 15 7 0 13-7 13-15z m-13-71c-21 0-38-19-38-43 0-23 17-42 38-42 21 0 38 19 38 42 0 24-17 43-38 43z m0-57c-7 0-13 7-13 14 0 8 6 14 13 14 7 0 13-6 13-14 0-7-6-14-13-14z"/>
<glyph glyph-name="back" unicode="&#111;" d="M68 247l372-244c8-6 11-3 8 6l-153 233c-3 9-3 23 0 32l153 229c3 9 0 12-8 6l-372-241c-7-5-7-15 0-21z"/>
<glyph glyph-name="next" unicode="&#115;" d="M505 265l-493 244c-10 6-15 3-10-6l202-233c5-8 5-23 0-32l-202-229c-5-9 0-12 10-6l493 241c9 6 9 15 0 21z"/>
<glyph glyph-name="thislocation" unicode="&#107;" d="M256 512c-118 0-213-87-213-195 0-150 213-317 213-317 0 0 213 174 213 317 0 108-95 195-213 195z m0-44c87 0 157-65 157-144 0-34-13-65-34-89-6 6-13 11-21 13l-44 9-9 16c-1 1-2 2-3 2 8 10 15 21 19 32 8 3 16 9 18 17 4 11 0 21-7 25l0 8c7 19 10 50-21 67-14 7-25 8-34 5-2 3 2 8 2 8-7 0-10-3-12-5-10 4-22 5-38 2-52-10-58-71-49-85-7-4-11-14-7-25 2-8 10-15 18-17 4-11 11-22 18-32 0 0-1-1-2-2l-9-16-44-9c-8-2-15-7-21-13-21 24-34 55-34 89 0 79 70 144 157 144z m-65-116l0 4c1 9 11 26 62 11 18-6 29 3 34 14 18-2 29-20 34-31l0-9c1 0 1 0 2 1 0-1 0-1 0-1 0 0 0 0 1 0 0 0 0 1 1 0 4-1 6-7 4-14-2-7-12-12-16-11-6-19-21-43-42-52-4-2-10-3-15-3-6 0-11 1-16 3-20 9-34 33-41 52-4-1-14 4-16 11-2 7 0 13 4 15 1 0 3 0 4-1l0 11c0 0 0 0 0 0 0 0 0 0 0 0z m110-93l3-5 1-2-5-2-31-17-7 13 15 8 7 4 6 3 8 4z m-87 6l8-4 6-3 7-4 15-8-7-13-31 17-5 2 1 2 3 5z m28-42c1-1 2-1 3-1 0 0 1 0 1 0 2 1 3 2 4 3l6 12 6-12c1-1 2-2 3-3 1 0 1 0 2 0 1 0 2 0 3 1l44 23c0 0 0 1 1 1l41-8c6-1 12-6 16-11-29-29-70-47-116-47-46 0-87 18-116 47 4 5 10 10 16 11l41 8c1 0 1-1 1-1z"/>
<glyph glyph-name="menu" unicode="&#66;" d="M307 455c0-28-23-51-51-51l0-5c31 0 56 25 56 56z m-51-51c-28 0-51 23-51 51l-5 0c0-31 25-56 56-56z m-51 51c0 28 23 51 51 51l0 5c-31 0-56-25-56-56z m51 51c28 0 51-23 51-51l5 0c0 31-25 56-56 56z m51-449c0-28-23-51-51-51l0-5c31 0 56 25 56 56z m-51-51c-28 0-51 23-51 51l-5 0c0-31 25-56 56-56z m-51 51c0 28 23 51 51 51l0 5c-31 0-56-25-56-56z m51 51c28 0 51-23 51-51l5 0c0 31-25 56-56 56z m51 148c0-28-23-51-51-51l0-5c31 0 56 25 56 56z m-51-51c-28 0-51 23-51 51l-5 0c0-31 25-56 56-56z m-51 51c0 28 23 51 51 51l0 5c-31 0-56-25-56-56z m51 51c28 0 51-23 51-51l5 0c0 31-25 56-56 56z"/>
<glyph glyph-name="menu-active" unicode="&#83;" d="M256 401c30 0 54 24 54 54 0 30-24 54-54 54-30 0-54-24-54-54 0-30 24-54 54-54z m51 54c0-28-23-51-51-51l0-5c31 0 56 25 56 56z m-51-51c-28 0-51 23-51 51l-5 0c0-31 25-56 56-56z m-51 51c0 28 23 51 51 51l0 5c-31 0-56-25-56-56z m51 51c28 0 51-23 51-51l5 0c0 31-25 56-56 56z m0-503c30 0 54 24 54 54 0 30-24 54-54 54-30 0-54-24-54-54 0-30 24-54 54-54z m51 54c0-28-23-51-51-51l0-5c31 0 56 25 56 56z m-51-51c-28 0-51 23-51 51l-5 0c0-31 25-56 56-56z m-51 51c0 28 23 51 51 51l0 5c-31 0-56-25-56-56z m51 51c28 0 51-23 51-51l5 0c0 31-25 56-56 56z m0 94c30 0 54 24 54 54 0 30-24 54-54 54-30 0-54-24-54-54 0-30 24-54 54-54z m51 54c0-28-23-51-51-51l0-5c31 0 56 25 56 56z m-51-51c-28 0-51 23-51 51l-5 0c0-31 25-56 56-56z m-51 51c0 28 23 51 51 51l0 5c-31 0-56-25-56-56z m51 51c28 0 51-23 51-51l5 0c0 31-25 56-56 56z"/>
<glyph glyph-name="group-2-3" unicode="&#109;" d="M240 385l0-218 24 0 0 218z m88 61c0 37-33 66-75 66-41 0-74-29-74-66 0-36 74-104 74-104 0 0 75 68 75 104z m-109 1c0 17 15 31 34 31 19 0 35-13 35-31 0-16-15-30-35-30-19 0-34 14-34 30z m40-277c-42 0-75-31-75-70 0-50 67-97 70-99 1-1 3-1 5-1 1 0 3 0 4 1 3 2 70 45 70 99 0 39-33 70-74 70z m0-153c-15 11-59 47-59 83 0 30 26 55 59 55 32 0 59-25 59-55 0-38-45-73-59-83z m0 114c-17 0-31-13-31-29 0-16 14-30 31-30 18 0 32 14 32 30 0 16-14 29-32 29z m0-51c-12 0-23 10-23 22 0 12 11 22 23 22 13 0 24-10 24-22 0-12-11-22-24-22z"/>
<glyph glyph-name="delete-chat" unicode="&#106;" d="M19 358l38 0 0-341c0-9 9-17 19-17l350 0c11 0 19 8 19 17l0 341 48 0c10 0 19 8 19 17 0 10-9 18-19 18l-91 0c-1 15-5 51-35 80-26 26-65 39-114 39-50 0-88-13-112-39-26-29-27-64-27-80l-95 0c-10 0-19-8-19-18 0-9 9-17 19-17z m151 93c16 17 44 26 82 26 39 0 68-9 87-27 21-20 24-47 24-57l-210 0c-1 9-2 37 17 58z m237-93l0-323-312 0 0 323z m-216-274c10 0 19 8 19 18l0 201c0 9-9 17-19 17-11 0-19-8-19-17l0-201c0-10 8-18 19-18z m121 0c10 0 19 8 19 18l0 201c0 9-9 17-19 17-11 0-19-8-19-17l0-201c0-10 8-18 19-18z"/>
<glyph glyph-name="cart" unicode="&#108;" d="M216 91c-24 0-43-20-43-46 0-25 19-45 43-45 23 0 42 20 42 45 0 26-19 46-42 46z m0-71c-14 0-24 12-24 25 0 14 10 26 24 26 13 0 23-12 23-26 0-13-10-25-23-25z m191 71c-24 0-43-20-43-46 0-25 19-45 43-45 23 0 42 20 42 45 0 26-19 46-42 46z m0-71c-13 0-24 12-24 25 0 14 11 26 24 26 13 0 23-12 23-26 0-13-10-25-23-25z m54 355l-1 0-52 0c-4 0-9 0-11 0l-77-1-76 1c-4 0-9 0-12 0l-52 0-1 0c-20-4-35-18-44-35l-37 167c-1 4-5 5-9 5l-79 0c-6 0-10-5-10-10 0-6 4-10 10-10l71 0 69-312c0 0 0 2 0 2 5-28 25-48 51-53 1 0 2 0 3 0l1 0 6 0 0 10 1-10 108 1 107-1 0 10 1-10 7 0 0 0c2 0 3 1 4 1 26 5 46 26 51 53l21 113c7 36-16 72-50 79z m31-76l-21-112c-3-19-17-34-36-37l-1 0c-1-1-1-1-1-1l-113 1-113-1c0 0-1 0-1 1l-2 0c-18 3-32 18-36 37l-21 112c-4 26 11 50 34 56l52-1c3 1 5 1 10 0l77 0 78 0c3 1 4 1 9 0l51 1c24-6 39-30 34-56z"/>
<glyph glyph-name="buyer" unicode="&#112;" d="M512 256c0 141-115 256-256 256-141 0-256-115-256-256 0-63 23-123 64-169l0-1 12-12 5-5 0 0c48-44 109-69 175-69 65 0 127 25 174 69l1 0 4 4 13 13-1 0c42 47 65 107 65 170z m-256-234c-56 0-110 19-152 55l107 38-1 8c0 1 0 1 0 2-1 1-1 1-1 2l0 28c15-9 30-14 47-14 17 0 32 5 47 14l0-28c0-1 0-2-1-3l-1-10 106-37c-42-36-95-55-151-55z m-68 184c-15 23-25 54-25 88 0 72 42 131 93 131 51 0 93-59 93-131 0-34-10-65-25-88-5-9-12-17-19-23-14-13-31-20-49-20-18 0-35 7-49 20-7 6-14 14-19 23z m237-112l-101 35 0 43c28 28 46 72 46 122 0 84-51 153-114 153-63 0-114-69-114-153 0-50 18-94 46-122l0-43-102-35c-41 44-64 101-64 162 0 129 105 234 234 234 129 0 234-105 234-234 0-61-23-119-65-162z"/>
<glyph glyph-name="delivering" unicode="&#76;" d="M256 512c-141 0-256-115-256-256 0-141 115-256 256-256 141 0 256 115 256 256 0 141-115 256-256 256z m0-496c-133 0-240 107-240 240 0 133 107 240 240 240 133 0 240-107 240-240 0-133-107-240-240-240z m-154 253l128-39 39-128 141 308z m154-13l-102 13 204 89-89-204z"/>
<glyph glyph-name="star" unicode="&#48;" d="M494 327c0-4-3-9-8-14l-103-101 24-143c0-1 0-3 0-5 0-4-1-8-3-10-2-3-4-5-8-5-4 0-8 2-12 4l-128 67-128-67c-4-2-8-4-12-4-4 0-7 2-9 5-2 2-3 6-3 10 0 1 0 3 1 5l24 143-104 101c-4 6-7 10-7 14 0 7 6 12 16 13l144 21 64 130c4 8 8 12 14 12 6 0 10-4 14-12l64-130 144-21c10-1 16-6 16-13z"/>
<glyph glyph-name="star-o" unicode="&#49;" d="M343 225l88 85-121 18-54 109-54-109-121-18 88-85-21-120 108 57 108-57z m151 102c0-4-3-9-8-14l-103-101 24-143c0-1 0-3 0-5 0-10-3-15-11-15-4 0-8 2-12 4l-128 67-128-67c-4-2-8-4-12-4-4 0-7 2-9 5-2 2-3 6-3 10 0 1 0 3 1 5l24 143-104 101c-4 6-7 10-7 14 0 7 6 12 16 13l144 21 64 130c4 8 8 12 14 12 6 0 10-4 14-12l64-130 144-21c10-1 16-6 16-13z"/>
<glyph glyph-name="star-half-o" unicode="&#50;" d="M357 239l74 71-102 15-19 3-9 17-45 92 0-275 17-9 91-48-17 101-4 19z m129 74l-103-101 24-143c1-6 1-11-2-14-2-4-5-6-9-6-4 0-7 2-12 4l-128 67-128-67c-5-2-8-4-12-4-4 0-7 2-9 6-3 3-3 8-2 14l24 143-104 101c-6 7-8 12-6 17 2 6 7 9 15 10l144 21 64 130c4 8 8 12 14 12 5 0 10-4 14-12l64-130 144-21c8-1 13-4 15-10 2-5 0-10-7-17z"/>
</font>
</defs>
</svg>
